<svg viewBox="0 0 1100 650" xmlns="http://www.w3.org/2000/svg" width="1100" height="650">
  <defs>
    <linearGradient id="dashBg" x1="0%" y1="0%" x2="100%" y2="100%">
      <stop offset="0%" style="stop-color:#0a0e1a"/>
      <stop offset="100%" style="stop-color:#0d1525"/>
    </linearGradient>
    <linearGradient id="sidebarGrad" x1="0%" y1="0%" x2="0%" y2="100%">
      <stop offset="0%" style="stop-color:#080c18"/>
      <stop offset="100%" style="stop-color:#060a14"/>
    </linearGradient>
    <linearGradient id="cardGrad1" x1="0%" y1="0%" x2="100%" y2="100%">
      <stop offset="0%" style="stop-color:#0a1525"/>
      <stop offset="100%" style="stop-color:#071020"/>
    </linearGradient>
    <filter id="dashGlow">
      <feGaussianBlur stdDeviation="3" result="coloredBlur"/>
      <feMerge><feMergeNode in="coloredBlur"/><feMergeNode in="SourceGraphic"/></feMerge>
    </filter>
    <clipPath id="dashClip">
      <rect width="1100" height="650" rx="12"/>
    </clipPath>
  </defs>

  <!-- Window chrome -->
  <rect width="1100" height="650" rx="12" fill="#1a1a2e"/>
  <rect width="1100" height="650" rx="12" fill="url(#dashBg)" clip-path="url(#dashClip)"/>
  
  <!-- Title bar -->
  <rect width="1100" height="36" fill="#060a14"/>
  <circle cx="20" cy="18" r="6" fill="#ff5f57"/>
  <circle cx="38" cy="18" r="6" fill="#febc2e"/>
  <circle cx="56" cy="18" r="6" fill="#28c840"/>
  <text x="550" y="23" text-anchor="middle" font-family="monospace" font-size="11" fill="#2a4060" letter-spacing="4">ClaimPilot Dashboard — localhost:3000</text>

  <!-- Sidebar -->
  <rect x="0" y="36" width="200" height="614" fill="url(#sidebarGrad)" />
  <line x1="200" y1="36" x2="200" y2="650" stroke="#1a2a3a" stroke-width="1"/>

  <!-- Logo in sidebar -->
  <text x="100" y="75" text-anchor="middle" font-family="'Courier New', monospace" font-size="16" fill="#00d4ff" font-weight="bold" letter-spacing="2">CLAIM</text>
  <text x="100" y="93" text-anchor="middle" font-family="'Courier New', monospace" font-size="16" fill="#ffffff" font-weight="bold" letter-spacing="2">PILOT</text>
  <line x1="20" y1="102" x2="180" y2="102" stroke="#1a2a3a" stroke-width="1"/>

  <!-- Sidebar nav items -->
  <g transform="translate(0, 115)">
    <!-- Active: Dashboard -->
    <rect x="10" y="0" width="180" height="36" rx="6" fill="#0d2040" stroke="#00d4ff" stroke-width="1"/>
    <text x="35" y="22" font-family="monospace" font-size="11" fill="#00d4ff">⊞  Dashboard</text>
    
    <text x="35" y="68" font-family="monospace" font-size="11" fill="#4a6080">📋  All Claims</text>
    <text x="35" y="104" font-family="monospace" font-size="11" fill="#4a6080">👤  Human Review</text>
    <!-- Badge on Human Review -->
    <rect x="145" y="92" width="20" height="16" rx="8" fill="#ff4444"/>
    <text x="155" y="104" text-anchor="middle" font-family="monospace" font-size="9" fill="#ffffff" font-weight="bold">3</text>
    
    <text x="35" y="140" font-family="monospace" font-size="11" fill="#4a6080">🔍  Fraud Reports</text>
    <text x="35" y="176" font-family="monospace" font-size="11" fill="#4a6080">📄  Audit Trail</text>
    <text x="35" y="212" font-family="monospace" font-size="11" fill="#4a6080">⚙️  Settings</text>
  </g>

  <!-- Live WS indicator -->
  <g transform="translate(20, 580)">
    <circle cx="8" cy="8" r="5" fill="#00ff88" opacity="0.9">
      <animate attributeName="r" values="5;7;5" dur="1.5s" repeatCount="indefinite"/>
      <animate attributeName="opacity" values="0.9;0.4;0.9" dur="1.5s" repeatCount="indefinite"/>
    </circle>
    <text x="18" y="12" font-family="monospace" font-size="9" fill="#00ff88">WS Connected</text>
  </g>

  <!-- ===== MAIN CONTENT AREA ===== -->
  
  <!-- Top header row -->
  <text x="225" y="70" font-family="'Courier New', monospace" font-size="18" fill="#ffffff" font-weight="bold" letter-spacing="1">Claims Dashboard</text>
  <text x="225" y="88" font-family="monospace" font-size="10" fill="#4a6080">Monday, June 08, 2026 — 14:23:41 IST</text>
  
  <!-- Submit claim button -->
  <rect x="940" y="50" width="140" height="34" rx="6" fill="#00d4ff" opacity="0.9"/>
  <text x="1010" y="72" text-anchor="middle" font-family="monospace" font-size="11" fill="#0a0e1a" font-weight="bold">+ Submit Claim</text>

  <!-- ===== STAT CARDS ROW ===== -->
  <g transform="translate(215, 105)">
    <!-- Card 1: Total Claims -->
    <rect x="0" y="0" width="190" height="90" rx="10" fill="url(#cardGrad1)" stroke="#1a2a3a" stroke-width="1"/>
    <text x="20" y="28" font-family="monospace" font-size="9" fill="#4a6080" letter-spacing="2">TOTAL CLAIMS</text>
    <text x="20" y="60" font-family="monospace" font-size="32" fill="#ffffff" font-weight="bold">247</text>
    <text x="20" y="78" font-family="monospace" font-size="8" fill="#00ff88">↑ 12 this week</text>
    <!-- Sparkline -->
    <polyline points="120,70 130,60 140,65 150,50 160,55 170,40 180,35" fill="none" stroke="#00d4ff" stroke-width="2" opacity="0.6"/>

    <!-- Card 2: Approved -->
    <rect x="205" y="0" width="190" height="90" rx="10" fill="url(#cardGrad1)" stroke="#1a2a3a" stroke-width="1"/>
    <text x="225" y="28" font-family="monospace" font-size="9" fill="#4a6080" letter-spacing="2">APPROVED</text>
    <text x="225" y="60" font-family="monospace" font-size="32" fill="#00ff88" font-weight="bold">189</text>
    <text x="225" y="78" font-family="monospace" font-size="8" fill="#00ff88">76.5% approval rate</text>

    <!-- Card 3: Fraud Flagged -->
    <rect x="410" y="0" width="190" height="90" rx="10" fill="url(#cardGrad1)" stroke="#1a2a3a" stroke-width="1"/>
    <text x="430" y="28" font-family="monospace" font-size="9" fill="#4a6080" letter-spacing="2">FRAUD FLAGGED</text>
    <text x="430" y="60" font-family="monospace" font-size="32" fill="#ff4444" font-weight="bold">23</text>
    <text x="430" y="78" font-family="monospace" font-size="8" fill="#ff4444">9.3% flag rate</text>

    <!-- Card 4: Avg Processing -->
    <rect x="615" y="0" width="190" height="90" rx="10" fill="url(#cardGrad1)" stroke="#1a2a3a" stroke-width="1"/>
    <text x="635" y="28" font-family="monospace" font-size="9" fill="#4a6080" letter-spacing="2">AVG PROCESSING</text>
    <text x="635" y="60" font-family="monospace" font-size="28" fill="#00d4ff" font-weight="bold">2.4s</text>
    <text x="635" y="78" font-family="monospace" font-size="8" fill="#00d4ff">vs 3-5 days manual</text>

    <!-- Card 5: Pending -->
    <rect x="820" y="0" width="150" height="90" rx="10" fill="url(#cardGrad1)" stroke="#1a2a3a" stroke-width="1"/>
    <text x="840" y="28" font-family="monospace" font-size="9" fill="#4a6080" letter-spacing="2">PENDING</text>
    <text x="840" y="60" font-family="monospace" font-size="32" fill="#ffaa00" font-weight="bold">35</text>
    <text x="840" y="78" font-family="monospace" font-size="8" fill="#ffaa00">In pipeline</text>
  </g>

  <!-- ===== CLAIMS TABLE ===== -->
  <rect x="215" y="220" width="660" height="390" rx="10" fill="url(#cardGrad1)" stroke="#1a2a3a" stroke-width="1"/>
  <text x="235" y="248" font-family="monospace" font-size="12" fill="#ffffff" font-weight="bold">Recent Claims</text>
  <text x="235" y="262" font-family="monospace" font-size="8" fill="#4a6080">Live · auto-updating via WebSocket</text>

  <!-- Table header -->
  <rect x="215" y="270" width="660" height="28" fill="#080c18"/>
  <text x="235" y="288" font-family="monospace" font-size="9" fill="#2a4060" letter-spacing="1">CLAIM ID</text>
  <text x="335" y="288" font-family="monospace" font-size="9" fill="#2a4060" letter-spacing="1">TYPE</text>
  <text x="415" y="288" font-family="monospace" font-size="9" fill="#2a4060" letter-spacing="1">CLAIMANT</text>
  <text x="545" y="288" font-family="monospace" font-size="9" fill="#2a4060" letter-spacing="1">AMOUNT</text>
  <text x="635" y="288" font-family="monospace" font-size="9" fill="#2a4060" letter-spacing="1">FRAUD SCORE</text>
  <text x="760" y="288" font-family="monospace" font-size="9" fill="#2a4060" letter-spacing="1">STATUS</text>

  <!-- Row 1 — approved -->
  <rect x="215" y="298" width="660" height="34" fill="#0a1525" opacity="0.5"/>
  <text x="235" y="319" font-family="monospace" font-size="10" fill="#00d4ff">CLM-2041</text>
  <text x="335" y="319" font-family="monospace" font-size="10" fill="#4a7090">Auto</text>
  <text x="415" y="319" font-family="monospace" font-size="10" fill="#e2e8f0">Riya Sharma</text>
  <text x="545" y="319" font-family="monospace" font-size="10" fill="#e2e8f0">₹12,400</text>
  <!-- Fraud score bar -->
  <rect x="635" y="310" width="80" height="8" rx="4" fill="#1a2a3a"/>
  <rect x="635" y="310" width="16" height="8" rx="4" fill="#00ff88"/>
  <text x="720" y="319" font-family="monospace" font-size="9" fill="#00ff88">0.20</text>
  <rect x="760" y="308" width="80" height="18" rx="9" fill="#003320" stroke="#00ff88" stroke-width="1"/>
  <text x="800" y="321" text-anchor="middle" font-family="monospace" font-size="9" fill="#00ff88" font-weight="bold">APPROVED</text>

  <!-- Row 2 — fraud flagged -->
  <rect x="215" y="332" width="660" height="34" fill="#200808" opacity="0.4"/>
  <text x="235" y="353" font-family="monospace" font-size="10" fill="#00d4ff">CLM-2042</text>
  <text x="335" y="353" font-family="monospace" font-size="10" fill="#4a7090">Health</text>
  <text x="415" y="353" font-family="monospace" font-size="10" fill="#e2e8f0">Ankit Verma</text>
  <text x="545" y="353" font-family="monospace" font-size="10" fill="#e2e8f0">₹89,000</text>
  <rect x="635" y="344" width="80" height="8" rx="4" fill="#1a2a3a"/>
  <rect x="635" y="344" width="74" height="8" rx="4" fill="#ff4444">
    <animate attributeName="opacity" values="1;0.5;1" dur="1s" repeatCount="indefinite"/>
  </rect>
  <text x="720" y="353" font-family="monospace" font-size="9" fill="#ff4444">0.93</text>
  <rect x="760" y="342" width="80" height="18" rx="9" fill="#330000" stroke="#ff4444" stroke-width="1"/>
  <text x="800" y="355" text-anchor="middle" font-family="monospace" font-size="9" fill="#ff4444" font-weight="bold">REJECTED</text>

  <!-- Row 3 — pending -->
  <rect x="215" y="366" width="660" height="34" fill="#0a1525" opacity="0.3"/>
  <text x="235" y="387" font-family="monospace" font-size="10" fill="#00d4ff">CLM-2043</text>
  <text x="335" y="387" font-family="monospace" font-size="10" fill="#4a7090">Property</text>
  <text x="415" y="387" font-family="monospace" font-size="10" fill="#e2e8f0">Priya Nair</text>
  <text x="545" y="387" font-family="monospace" font-size="10" fill="#e2e8f0">₹2,40,000</text>
  <rect x="635" y="378" width="80" height="8" rx="4" fill="#1a2a3a"/>
  <rect x="635" y="378" width="38" height="8" rx="4" fill="#ffaa00"/>
  <text x="720" y="387" font-family="monospace" font-size="9" fill="#ffaa00">0.47</text>
  <rect x="760" y="376" width="90" height="18" rx="9" fill="#1a1000" stroke="#ffaa00" stroke-width="1"/>
  <text x="805" y="389" text-anchor="middle" font-family="monospace" font-size="9" fill="#ffaa00" font-weight="bold">ESCALATED</text>

  <!-- Row 4 - processing -->
  <rect x="215" y="400" width="660" height="34" fill="#0a1525" opacity="0.3"/>
  <text x="235" y="421" font-family="monospace" font-size="10" fill="#00d4ff">CLM-2044</text>
  <text x="335" y="421" font-family="monospace" font-size="10" fill="#4a7090">Auto</text>
  <text x="415" y="421" font-family="monospace" font-size="10" fill="#e2e8f0">Karan Mehta</text>
  <text x="545" y="421" font-family="monospace" font-size="10" fill="#e2e8f0">₹34,500</text>
  <rect x="635" y="412" width="80" height="8" rx="4" fill="#1a2a3a"/>
  <!-- Processing spinner -->
  <rect x="760" y="410" width="95" height="18" rx="9" fill="#0d1e35" stroke="#00d4ff" stroke-width="1" stroke-dasharray="4,2">
    <animate attributeName="stroke-dashoffset" from="0" to="-12" dur="1s" repeatCount="indefinite"/>
  </rect>
  <text x="807" y="423" text-anchor="middle" font-family="monospace" font-size="9" fill="#00d4ff" font-weight="bold">PROCESSING…</text>

  <!-- Row 5 -->
  <rect x="215" y="434" width="660" height="34" fill="#0a1525" opacity="0.5"/>
  <text x="235" y="455" font-family="monospace" font-size="10" fill="#00d4ff">CLM-2040</text>
  <text x="335" y="455" font-family="monospace" font-size="10" fill="#4a7090">Health</text>
  <text x="415" y="455" font-family="monospace" font-size="10" fill="#e2e8f0">Deepa Rao</text>
  <text x="545" y="455" font-family="monospace" font-size="10" fill="#e2e8f0">₹1,80,000</text>
  <rect x="635" y="446" width="80" height="8" rx="4" fill="#1a2a3a"/>
  <rect x="635" y="446" width="14" height="8" rx="4" fill="#00ff88"/>
  <text x="720" y="455" font-family="monospace" font-size="9" fill="#00ff88">0.17</text>
  <rect x="760" y="444" width="80" height="18" rx="9" fill="#003320" stroke="#00ff88" stroke-width="1"/>
  <text x="800" y="457" text-anchor="middle" font-family="monospace" font-size="9" fill="#00ff88" font-weight="bold">APPROVED</text>

  <!-- Pagination -->
  <text x="235" y="595" font-family="monospace" font-size="9" fill="#2a4060">Showing 5 of 247 claims</text>
  <rect x="740" y="580" width="60" height="22" rx="5" fill="#0d1e35" stroke="#1a3050"/>
  <text x="770" y="595" text-anchor="middle" font-family="monospace" font-size="9" fill="#4a7090">← Prev</text>
  <rect x="810" y="580" width="60" height="22" rx="5" fill="#0d2040" stroke="#00d4ff" stroke-width="1"/>
  <text x="840" y="595" text-anchor="middle" font-family="monospace" font-size="9" fill="#00d4ff">Next →</text>

  <!-- ===== RIGHT PANEL: Claim Detail ===== -->
  <rect x="888" y="220" width="192" height="390" rx="10" fill="url(#cardGrad1)" stroke="#1a2a3a" stroke-width="1"/>
  <text x="908" y="248" font-family="monospace" font-size="11" fill="#ffffff" font-weight="bold">Agent Reasoning</text>
  <text x="908" y="262" font-family="monospace" font-size="8" fill="#4a6080">CLM-2041 audit trail</text>

  <!-- Reasoning chain steps -->
  <g transform="translate(905, 278)">
    <!-- Step 1 -->
    <circle cx="10" cy="10" r="6" fill="#00d4ff" opacity="0.8"/>
    <text x="22" y="14" font-family="monospace" font-size="8" fill="#00d4ff" font-weight="bold">Intake</text>
    <text x="22" y="26" font-family="monospace" font-size="7" fill="#4a6080">PDF parsed. 3 tools</text>
    <text x="22" y="36" font-family="monospace" font-size="7" fill="#4a6080">called. NER complete.</text>
    <line x1="10" y1="16" x2="10" y2="52" stroke="#1a2a3a" stroke-width="1"/>

    <!-- Step 2 -->
    <circle cx="10" cy="58" r="6" fill="#a78bfa" opacity="0.8"/>
    <text x="22" y="62" font-family="monospace" font-size="8" fill="#a78bfa" font-weight="bold">Validation</text>
    <text x="22" y="74" font-family="monospace" font-size="7" fill="#4a6080">Policy found. Active.</text>
    <text x="22" y="84" font-family="monospace" font-size="7" fill="#4a6080">Coverage: ✓ Auto</text>
    <line x1="10" y1="64" x2="10" y2="100" stroke="#1a2a3a" stroke-width="1"/>

    <!-- Step 3 -->
    <circle cx="10" cy="106" r="6" fill="#60a5fa" opacity="0.8"/>
    <text x="22" y="110" font-family="monospace" font-size="8" fill="#60a5fa" font-weight="bold">Investigation</text>
    <text x="22" y="122" font-family="monospace" font-size="7" fill="#4a6080">Weather: Light rain.</text>
    <text x="22" y="132" font-family="monospace" font-size="7" fill="#4a6080">Incident: Confirmed.</text>
    <line x1="10" y1="112" x2="10" y2="148" stroke="#1a2a3a" stroke-width="1"/>

    <!-- Step 4 -->
    <circle cx="10" cy="154" r="6" fill="#f87171" opacity="0.8"/>
    <text x="22" y="158" font-family="monospace" font-size="8" fill="#f87171" font-weight="bold">Fraud Check</text>
    <text x="22" y="170" font-family="monospace" font-size="7" fill="#4a6080">Score: 0.20 — Clean</text>
    <text x="22" y="180" font-family="monospace" font-size="7" fill="#00ff88">No anomalies found.</text>
    <line x1="10" y1="160" x2="10" y2="196" stroke="#1a2a3a" stroke-width="1"/>

    <!-- Step 5 -->
    <circle cx="10" cy="202" r="6" fill="#00ff88" opacity="0.8"/>
    <text x="22" y="206" font-family="monospace" font-size="8" fill="#00ff88" font-weight="bold">Settlement</text>
    <text x="22" y="218" font-family="monospace" font-size="7" fill="#4a6080">Payout: ₹12,400</text>
    <text x="22" y="228" font-family="monospace" font-size="7" fill="#4a6080">PDF generated.</text>

    <!-- Final status -->
    <rect x="0" y="248" width="170" height="26" rx="6" fill="#003320" stroke="#00ff88" stroke-width="1.5"/>
    <text x="85" y="265" text-anchor="middle" font-family="monospace" font-size="10" fill="#00ff88" font-weight="bold">✓ CLAIM APPROVED</text>

    <text x="85" y="300" text-anchor="middle" font-family="monospace" font-size="7" fill="#2a4060">2.3s total · 5 agents · 12 tool calls</text>
  </g>

  <!-- Bottom bar -->
  <rect x="0" y="620" width="1100" height="30" fill="#060a14"/>
  <text x="20" y="639" font-family="monospace" font-size="8" fill="#2a4060">ClaimPilot v1.0.0 — FastAPI 0.115 — LangGraph 0.2 — Next.js 15 — claude-3-5-sonnet</text>
  <circle cx="1070" cy="635" r="5" fill="#00ff88" opacity="0.8">
    <animate attributeName="opacity" values="0.8;0.3;0.8" dur="2s" repeatCount="indefinite"/>
  </circle>
  <text x="1082" y="639" text-anchor="middle" font-family="monospace" font-size="8" fill="#00ff88">●</text>
</svg>
